<svg xmlns="http://www.w3.org/2000/svg" width="16" height="16" viewBox="0 0 16 16">
  <rect x="5" y="0" width="2" height="1" fill="#FF13A9"/>
  <rect x="9" y="0" width="2" height="1" fill="#FF13A9"/>
  <rect x="3" y="1" width="4" height="1" fill="#FF13A9"/>
  <rect x="9" y="1" width="4" height="1" fill="#FF13A9"/>
  <rect x="2" y="2" width="5" height="1" fill="#FF13A9"/>
  <rect x="9" y="2" width="5" height="1" fill="#FF13A9"/>
  <rect x="1" y="3" width="6" height="1" fill="#FF13A9"/>
  <rect x="9" y="3" width="6" height="1" fill="#FF13A9"/>
  <rect x="1" y="4" width="14" height="1" fill="#FF13A9"/>
  <rect x="1" y="5" width="14" height="1" fill="#FF13A9"/>
  <rect x="1" y="6" width="14" height="1" fill="#FF13A9"/>
  <rect x="2" y="7" width="12" height="1" fill="#FF13A9"/>
  <rect x="3" y="8" width="10" height="1" fill="#FF13A9"/>
  <rect x="4" y="9" width="8" height="1" fill="#FF13A9"/>
  <rect x="5" y="10" width="6" height="1" fill="#FF13A9"/>
  <rect x="6" y="11" width="4" height="1" fill="#FF13A9"/>
  <rect x="7" y="12" width="2" height="1" fill="#FF13A9"/>
  <rect x="5" y="5" width="1" height="2" fill="#1a1a2e"/>
  <rect x="10" y="5" width="1" height="2" fill="#1a1a2e"/>
  <rect x="7" y="7" width="2" height="1" fill="#1a1a2e"/>
</svg>
